<!DOCTYPE svg PUBLIC "-//W3C//DTD SVG 1.1//EN"
 "http://www.w3.org/Graphics/SVG/1.1/DTD/svg11.dtd">
<svg version="1.1"
 width="600px" height="394px"
 viewBox="0 0 600 394"
 xmlns="http://www.w3.org/2000/svg" shape-rendering="crispEdges"
 stroke-width="1" text-rendering="geometricPrecision">
<polygon fill="white" points="135,7 163,7 163,16 135,16"/>
<text x="150" y="16" textLength="26" font-family="Helvetica" font-size="12" fill="black" text-anchor="middle">

Alice
</text>
<polygon fill="white" points="438,7 460,7 460,16 438,16"/>
<text x="450" y="16" textLength="21" font-family="Helvetica" font-size="12" fill="black" text-anchor="middle">

Bob
</text>
<line x1="150" y1="22" x2="150" y2="50" stroke="black"/>
<line x1="450" y1="22" x2="450" y2="50" stroke="black"/>
<path d="M 47 36 A146,6 0 0,1 150,26" stroke="white" fill="none"/><line x1="43" y1="32" x2="51" y2="40" stroke="white"/>
<line x1="51" y1="32" x2="43" y2="40" stroke="white"/>
<line x1="150" y1="50" x2="150" y2="78" stroke="black"/>
<line x1="450" y1="50" x2="450" y2="78" stroke="black"/>
<polygon fill="white" points="189,51 409,51 409,60 189,60"/>
<text x="190" y="60" textLength="218" font-family="Helvetica" font-size="12" fill="black">
\hspace{-44mm} $\alpha=a_{k,i}-a_{k,j}$ 
</text>
<polygon fill="white" points="154,62 444,62 444,71 154,71"/>
<text x="155" y="71" textLength="288" font-family="Helvetica" font-size="12" fill="black">
 \hspace{-31mm} $=\alpha_M\alpha_{M-1}...\alpha_1$
</text>
<line x1="150" y1="78" x2="150" y2="95" stroke="black"/>
<line x1="450" y1="78" x2="450" y2="95" stroke="black"/>
<polygon fill="white" points="153,79 445,79 445,88 153,88"/>
<text x="154" y="88" textLength="290" font-family="Helvetica" font-size="12" fill="black">
\hspace{-45mm} $\alfa_{m}^E=EN(\alfa_{m},keyA.pk)$
</text>
<line x1="150" y1="95" x2="150" y2="123" stroke="black"/>
<line x1="450" y1="95" x2="450" y2="123" stroke="black"/>
<line x1="150" y1="106" x2="450" y2="106" stroke="black"/>
<line x1="450" y1="106" x2="440" y2="112" stroke="black"/>
<polygon fill="white" points="161,96 437,96 437,105 161,105"/>
<text x="162" y="105" textLength="274" font-family="Helvetica" font-size="12" fill="black">
\hspace{ 33mm} \raisebox{1mm}{$\alpha_{m}^{E}$}
</text>
<line x1="150" y1="123" x2="150" y2="151" stroke="black"/>
<line x1="450" y1="123" x2="450" y2="151" stroke="black"/>
<polygon fill="white" points="193,124 406,124 406,133 193,133"/>
<text x="194" y="133" textLength="211" font-family="Helvetica" font-size="12" fill="black">
\hspace{ 69mm} $\beta=b_{k,j}-b_{k,i}$ 
</text>
<polygon fill="white" points="160,135 439,135 439,144 160,144"/>
<text x="161" y="144" textLength="277" font-family="Helvetica" font-size="12" fill="black">
 \hspace{ 82mm} $=\beta_{M}\beta_{M-1}...\beta_1$
</text>
<line x1="150" y1="151" x2="150" y2="168" stroke="black"/>
<line x1="450" y1="151" x2="450" y2="168" stroke="black"/>
<polygon fill="white" points="154,152 445,152 445,161 154,161"/>
<text x="155" y="161" textLength="289" font-family="Helvetica" font-size="12" fill="black">
\hspace{ 80mm} $\beta_{m}^E=EN(\beta_m,keyA.pk)$
</text>
<line x1="150" y1="168" x2="150" y2="185" stroke="black"/>
<line x1="450" y1="168" x2="450" y2="185" stroke="black"/>
<polygon fill="white" points="298,169 300,169 300,178 298,178"/>
<text x="299" y="178" textLength="0" font-family="Helvetica" font-size="12" fill="black">

</text>
<line x1="150" y1="185" x2="150" y2="202" stroke="black"/>
<line x1="450" y1="185" x2="450" y2="202" stroke="black"/>
<polygon fill="white" points="160,186 439,186 439,195 160,195"/>
<text x="161" y="195" textLength="277" font-family="Helvetica" font-size="12" fill="black">
\hspace{79mm}$d_m^E=\ax_m^E\times(-\bx_m^E)$
</text>
<line x1="150" y1="202" x2="150" y2="219" stroke="black"/>
<line x1="450" y1="202" x2="450" y2="219" stroke="black"/>
<polygon fill="white" points="160,203 438,203 438,212 160,212"/>
<text x="161" y="212" textLength="276" font-family="Helvetica" font-size="12" fill="black">
\hspace{79mm}$f_m^E=\ax_m^E\oplus^E\bx_m^E$
</text>
<line x1="150" y1="219" x2="150" y2="236" stroke="black"/>
<line x1="450" y1="219" x2="450" y2="236" stroke="black"/>
<polygon fill="white" points="156,220 443,220 443,229 156,229"/>
<text x="157" y="229" textLength="285" font-family="Helvetica" font-size="12" fill="black">
\hspace{80mm}$\gx_m^E=(\gx_{m-1}^E)^2\tx f_m^E$
</text>
<line x1="150" y1="236" x2="150" y2="253" stroke="black"/>
<line x1="450" y1="236" x2="450" y2="253" stroke="black"/>
<polygon fill="white" points="156,237 443,237 443,246 156,246"/>
<text x="157" y="246" textLength="285" font-family="Helvetica" font-size="12" fill="black">
\hspace{80mm}$\dx_{m}^E=d_{m}^E\tx\xpra^{r_{m}}$
</text>
<line x1="150" y1="253" x2="150" y2="281" stroke="black"/>
<line x1="450" y1="253" x2="450" y2="281" stroke="black"/>
<line x1="450" y1="264" x2="150" y2="264" stroke="black"/>
<line x1="150" y1="264" x2="160" y2="270" stroke="black"/>
<polygon fill="white" points="163,254 435,254 435,263 163,263"/>
<text x="164" y="263" textLength="270" font-family="Helvetica" font-size="12" fill="black">
\hspace{ 33mm} \raisebox{1mm}{$\delta_{m}^{E}$}
</text>
<line x1="150" y1="281" x2="150" y2="298" stroke="black"/>
<line x1="450" y1="281" x2="450" y2="298" stroke="black"/>
<polygon fill="white" points="151,282 448,282 448,291 151,291"/>
<text x="152" y="291" textLength="295" font-family="Helvetica" font-size="12" fill="black">
\hspace{-43mm} $\delta_m=DE(\delta_{m}^E,keyA.sk)$
</text>
<line x1="150" y1="298" x2="150" y2="315" stroke="black"/>
<line x1="450" y1="298" x2="450" y2="315" stroke="black"/>
<polygon fill="white" points="298,299 300,299 300,308 298,308"/>
<text x="299" y="308" textLength="0" font-family="Helvetica" font-size="12" fill="black">

</text>
<line x1="150" y1="315" x2="150" y2="332" stroke="black"/>
<line x1="450" y1="315" x2="450" y2="332" stroke="black"/>
<polygon fill="white" points="158,316 440,316 440,325 158,325"/>
<text x="159" y="325" textLength="280" font-family="Helvetica" font-size="12" fill="black">
\hspace{-52mm}if $\E m:\delta_m=1$ then $\ax&gt;\bx$
</text>
<line x1="150" y1="332" x2="150" y2="349" stroke="black"/>
<line x1="450" y1="332" x2="450" y2="349" stroke="black"/>
<polygon fill="white" points="151,333 447,333 447,342 151,342"/>
<text x="152" y="342" textLength="294" font-family="Helvetica" font-size="12" fill="black">
\hspace{-50.2mm}if $\E m:\delta_m=-1$ then $\ax&lt;\bx$
</text>
<line x1="150" y1="349" x2="150" y2="366" stroke="black"/>
<line x1="450" y1="349" x2="450" y2="366" stroke="black"/>
<polygon fill="white" points="195,350 403,350 403,359 195,359"/>
<text x="196" y="359" textLength="206" font-family="Helvetica" font-size="12" fill="black">
\hspace{-63.3mm} else $\alpha=\beta$
</text>
<line x1="150" y1="366" x2="150" y2="394" stroke="black"/>
<line x1="450" y1="366" x2="450" y2="394" stroke="black"/>
<path d="M 450 370 A146,6 0 0,1 553,380" stroke="white" fill="none"/><line x1="549" y1="376" x2="557" y2="384" stroke="white"/>
<line x1="557" y1="376" x2="549" y2="384" stroke="white"/>
<line x1="150" y1="388" x2="150" y2="394" stroke="black"/>
<line x1="450" y1="388" x2="450" y2="394" stroke="black"/>
</svg>
