<!DOCTYPE svg PUBLIC "-//W3C//DTD SVG 1.1//EN"
 "http://www.w3.org/Graphics/SVG/1.1/DTD/svg11.dtd">
<svg version="1.1"
 width="600px" height="236px"
 viewBox="0 0 600 236"
 xmlns="http://www.w3.org/2000/svg" shape-rendering="crispEdges"
 stroke-width="1" text-rendering="geometricPrecision">
<polygon fill="white" points="135,7 163,7 163,16 135,16"/>
<text x="150" y="16" textLength="26" font-family="Helvetica" font-size="12" fill="black" text-anchor="middle">

Alice
</text>
<polygon fill="white" points="438,7 460,7 460,16 438,16"/>
<text x="450" y="16" textLength="21" font-family="Helvetica" font-size="12" fill="black" text-anchor="middle">

Bob
</text>
<line x1="150" y1="22" x2="150" y2="50" stroke="black"/>
<line x1="450" y1="22" x2="450" y2="50" stroke="black"/>
<path d="M 47 36 A146,6 0 0,1 150,26" stroke="white" fill="none"/><line x1="43" y1="32" x2="51" y2="40" stroke="white"/>
<line x1="51" y1="32" x2="43" y2="40" stroke="white"/>
<line x1="150" y1="50" x2="150" y2="67" stroke="black"/>
<line x1="450" y1="50" x2="450" y2="67" stroke="black"/>
<polygon fill="white" points="194,51 405,51 405,60 194,60"/>
<text x="195" y="60" textLength="209" font-family="Helvetica" font-size="12" fill="black">
\hspace{-50mm} $l^{E}=EN(l,keyA.pk)$
</text>
<line x1="150" y1="67" x2="150" y2="95" stroke="black"/>
<line x1="450" y1="67" x2="450" y2="95" stroke="black"/>
<line x1="150" y1="78" x2="450" y2="78" stroke="black"/>
<line x1="450" y1="78" x2="440" y2="84" stroke="black"/>
<polygon fill="white" points="189,68 410,68 410,77 189,77"/>
<text x="190" y="77" textLength="219" font-family="Helvetica" font-size="12" fill="black">
\hspace{ 27mm} \raisebox{1mm}{$l^{E}$}
</text>
<line x1="150" y1="95" x2="150" y2="112" stroke="black"/>
<line x1="450" y1="95" x2="450" y2="112" stroke="black"/>
<polygon fill="white" points="170,96 429,96 429,105 170,105"/>
<text x="171" y="105" textLength="257" font-family="Helvetica" font-size="12" fill="black">
\hspace{ 75mm} $u_{k}^{E}=EN(u_{k},keyA.pk)$
</text>
<line x1="150" y1="112" x2="150" y2="129" stroke="black"/>
<line x1="450" y1="112" x2="450" y2="129" stroke="black"/>
<polygon fill="white" points="191,113 408,113 408,122 191,122"/>
<text x="192" y="122" textLength="215" font-family="Helvetica" font-size="12" fill="black">
\hspace{ 70mm} $k^{E}=EN(k,keyA.pk)$
</text>
<line x1="150" y1="129" x2="150" y2="146" stroke="black"/>
<line x1="450" y1="129" x2="450" y2="146" stroke="black"/>
<polygon fill="white" points="212,130 386,130 386,139 212,139"/>
<text x="213" y="139" textLength="172" font-family="Helvetica" font-size="12" fill="black">
\hspace{ 64mm} random $r_{k}$
</text>
<line x1="150" y1="146" x2="150" y2="163" stroke="black"/>
<line x1="450" y1="146" x2="450" y2="163" stroke="black"/>
<polygon fill="white" points="155,147 444,147 444,156 155,156"/>
<text x="156" y="156" textLength="287" font-family="Helvetica" font-size="12" fill="black">
\hspace{ 80mm} $v_k^E=u_k^E\tx(l^E\tx(-k^E))^{r_k}$
</text>
<line x1="150" y1="163" x2="150" y2="191" stroke="black"/>
<line x1="450" y1="163" x2="450" y2="191" stroke="black"/>
<line x1="450" y1="174" x2="150" y2="174" stroke="black"/>
<line x1="150" y1="174" x2="160" y2="180" stroke="black"/>
<polygon fill="white" points="177,164 422,164 422,173 177,173"/>
<text x="178" y="173" textLength="243" font-family="Helvetica" font-size="12" fill="black">
\hspace{ 30mm} \raisebox{1mm}{$v_{k}^{E}$}
</text>
<line x1="150" y1="191" x2="150" y2="208" stroke="black"/>
<line x1="450" y1="191" x2="450" y2="208" stroke="black"/>
<polygon fill="white" points="173,192 425,192 425,201 173,201"/>
<text x="174" y="201" textLength="250" font-family="Helvetica" font-size="12" fill="black">
\hspace{-47mm} $u_{l}=DE(v_{l}^{E},keyA.sk)$
</text>
<line x1="150" y1="208" x2="150" y2="236" stroke="black"/>
<line x1="450" y1="208" x2="450" y2="236" stroke="black"/>
<path d="M 450 212 A146,6 0 0,1 553,222" stroke="white" fill="none"/><line x1="549" y1="218" x2="557" y2="226" stroke="white"/>
<line x1="557" y1="218" x2="549" y2="226" stroke="white"/>
<line x1="150" y1="230" x2="150" y2="236" stroke="black"/>
<line x1="450" y1="230" x2="450" y2="236" stroke="black"/>
</svg>
